<?xml version="1.0" standalone="no"?>
<!DOCTYPE svg PUBLIC "-//W3C//DTD SVG 20010904//EN"
 "http://www.w3.org/TR/2001/REC-SVG-20010904/DTD/svg10.dtd">
<svg version="1.0" xmlns="http://www.w3.org/2000/svg"
 width="1179.000000pt" height="1203.000000pt" viewBox="0 0 1179.000000 1203.000000"
 preserveAspectRatio="xMidYMid meet">

<g transform="translate(0.000000,1203.000000) scale(0.100000,-0.100000)"
fill="#000000" stroke="none">
<path d="M4751 6843 c-62 -75 -200 -190 -268 -223 -176 -85 -250 -109 -468
-155 -44 -9 -96 -21 -115 -26 -48 -12 -147 -11 -195 2 -31 9 -40 8 -44 -2 -2
-8 -23 -32 -46 -54 -23 -23 -54 -59 -68 -82 -32 -51 -63 -82 -130 -132 -29
-21 -72 -60 -97 -86 -39 -40 -140 -109 -318 -219 -26 -16 -117 -65 -202 -108
-161 -84 -190 -102 -190 -124 0 -18 19 -27 33 -16 10 8 175 96 289 153 105 53
350 217 408 273 36 35 90 82 121 104 31 22 70 62 87 88 17 25 56 72 85 103
l54 56 99 -3 c100 -4 117 -1 354 51 110 25 270 85 380 143 42 22 102 70 169
134 l103 99 47 -37 c65 -52 82 -69 129 -133 33 -46 63 -70 166 -133 68 -41
137 -81 153 -88 15 -7 46 -24 68 -38 22 -14 53 -32 69 -40 16 -8 48 -32 71
-52 27 -24 78 -51 134 -73 81 -31 100 -35 188 -35 58 0 118 6 148 15 73 22
256 127 362 207 l91 70 34 -23 c18 -13 47 -36 63 -50 41 -37 164 -100 255
-131 246 -85 493 -88 815 -11 151 36 286 41 360 14 98 -37 219 -102 242 -131
13 -15 64 -53 114 -85 51 -31 127 -85 170 -121 89 -71 104 -80 233 -134 50
-20 115 -48 143 -61 53 -23 75 -21 58 7 -9 14 -120 66 -276 129 -41 17 -103
56 -160 101 -52 41 -128 96 -169 121 -41 26 -93 65 -116 88 -29 29 -76 57
-160 95 -107 48 -128 54 -202 58 -54 3 -104 -1 -145 -11 -222 -56 -366 -77
-521 -77 -290 0 -526 83 -714 250 -12 11 -26 20 -29 20 -4 0 -48 -31 -97 -69
-119 -90 -284 -183 -370 -210 -108 -33 -194 -29 -313 15 -61 23 -115 52 -147
78 -28 22 -91 64 -139 91 -238 135 -340 200 -366 234 -14 20 -61 71 -103 114
-43 43 -78 82 -78 87 0 20 -19 9 -49 -27z"/>
</g>
</svg>
